# xmcd CD database file
#
# Track frame offsets:
#	150
#	9728
#	23405
#	40945
#	59220
#	67455
#	86682
#	106790
#	127666
#	138998
#	153137
#	170129
#
# Disc length: 2434 seconds
#
# Revision: 1
# Processed by: cddbd v1.5.2PL0 Copyright (c) Steve Scherf et al.
# Submitted via: CDex 1.51
#
DISCID=9e09800c
DTITLE=Bart Oostindie - Welcome to the Costume Ball
DYEAR=2008
DGENRE=Jazz
TTITLE0=I Long
TTITLE1=Welcome to the Costume Ball
TTITLE2=Nothing More
TTITLE3=1,2,3
TTITLE4=Sweet John
TTITLE5=Smile the Blues Away
TTITLE6=Little Lullaby
TTITLE7=The Question
TTITLE8=Tough Boy
TTITLE9=Where I Belong
TTITLE10=Day Is Done
TTITLE11=God Bless America
EXTD=YEAR: 2008
EXTT0=
EXTT1=
EXTT2=
EXTT3=
EXTT4=
EXTT5=
EXTT6=
EXTT7=
EXTT8=
EXTT9=
EXTT10=
EXTT11=
PLAYORDER=
